<svg width="156" height="47" viewBox="0 0 156 47" fill="none" xmlns="http://www.w3.org/2000/svg">
<path d="M146 0L156 0V7C156 8.65685 154.657 10 153 10H146V0Z" fill="#C3D62A"/>
<path fill-rule="evenodd" clip-rule="evenodd" d="M143.33 16.2563L143.33 45.8869H131.935C129.164 45.8869 127.086 45.6294 125.701 45.1144C124.528 44.7005 123.594 44.2453 122.898 43.7487C123.594 44.2453 124.528 44.7006 125.701 45.1144C127.086 45.6294 129.164 45.8869 131.935 45.8869H143.33V16.2563ZM127.176 40.5346C127.176 40.5346 127.176 40.5346 127.176 40.5346L127.176 40.5346ZM126.237 16.2563V38.3827C126.237 38.3827 126.237 38.3827 126.237 38.3827V37.8861V16.2563H126.237ZM131.935 46.4387C129.138 46.4387 126.947 46.1817 125.431 45.6195C123.82 45.0506 122.578 44.3834 121.77 43.5938L121.767 43.5908L121.764 43.5877C121.345 43.1665 121.007 42.7711 120.758 42.4027L120.751 42.3923L120.745 42.3815C120.494 41.9685 120.318 41.5341 120.217 41.0799C120.125 40.7038 120.056 40.3606 120.009 40.0513C119.962 39.7462 119.937 39.4818 119.937 39.2655V15.7045H126.908V38.3827C126.908 38.6871 126.962 38.994 127.072 39.3049L127.316 39.8077C127.365 39.881 127.466 39.9929 127.65 40.1445L127.676 40.1661L127.699 40.1899C127.946 40.4438 128.393 40.6917 129.13 40.894L129.145 40.898L129.159 40.9025C129.646 41.0567 130.411 41.1795 131.492 41.2519H137.029V15.7045H144V46.4387H131.935ZM121.344 42.1348C121.316 42.0888 121.289 42.0425 121.263 41.996L121.344 42.1348Z" fill="#213083"/>
<path fill-rule="evenodd" clip-rule="evenodd" d="M108.959 18.7217L108.943 18.7167L108.928 18.7125C108.514 18.5989 108.058 18.4863 107.56 18.3744C107.148 18.2724 106.71 18.1352 106.245 17.9611L106.221 17.9522L106.197 17.9449C105.697 17.7954 105.197 17.664 104.696 17.5509L103.247 17.1172C102.749 16.9679 102.271 16.8366 101.813 16.7234C101.421 16.6159 101.053 16.5086 100.707 16.4018C100.351 16.2921 100.066 16.2017 99.8488 16.1302C99.7248 16.0894 99.6069 16.0546 99.4991 16.0292C99.4714 16.0227 99.441 16.016 99.4084 16.0097C99.352 15.9773 99.2947 15.9477 99.2409 15.9211C99.1179 15.8604 98.9689 15.7942 98.7979 15.7232L98.4827 15.5503C98.3684 15.4593 98.244 15.3704 98.1104 15.2835C98.0245 15.1619 97.9248 15.0487 97.8109 14.9449C97.7447 14.8312 97.677 14.7036 97.608 14.5616L97.5977 14.5403L97.5852 14.5197C97.4693 14.3288 97.3879 14.0363 97.3879 13.6078V5H90.3499V39.2655C90.3499 41.28 91.3651 42.9923 93.3331 44.3753C95.3418 45.7868 98.3926 46.4387 102.348 46.4387H114.413V25.471C114.413 24.0044 113.93 22.6343 112.971 21.3713L112.969 21.3685C112.036 20.1565 110.688 19.2754 108.959 18.7217ZM113.743 25.471V26.7953V45.8869L102.348 45.8869H113.743V25.471C113.743 25.471 113.743 25.471 113.743 25.471ZM96.7176 5.55178V12.6145V13.6077C96.7176 13.6825 96.7198 13.7549 96.7241 13.8252C96.7198 13.755 96.7176 13.6825 96.7176 13.6078V5.55178H96.7176ZM106.058 24.0068L106.062 24.0102C106.343 24.2121 106.657 24.5411 106.994 25.0275L107.002 25.0389L107.011 25.05C107.228 25.3306 107.375 25.7816 107.375 26.4642V27.3471H107.442V41.1968H102.348C101.277 41.1968 100.449 41.0902 99.8352 40.9008L99.795 40.8884L99.7533 40.8804C99.0873 40.7513 98.6423 40.5383 98.3553 40.2758L98.3435 40.2651L98.331 40.2548C97.936 39.9296 97.7206 39.6378 97.6277 39.3829L97.6155 39.3493L97.5982 39.3173C97.4649 39.0704 97.3879 38.7634 97.3879 38.3827V21.2038C97.5975 21.2958 97.8213 21.3672 98.0576 21.4183L99.1404 21.7526L99.1863 21.761C99.5366 21.825 99.8645 21.9206 100.171 22.0469L100.214 22.0645L100.259 22.0769C100.648 22.1835 100.987 22.2885 101.28 22.3916L101.294 22.3966L101.308 22.4011C101.68 22.5159 102.054 22.6125 102.428 22.6904C102.814 22.7966 103.178 22.9025 103.52 23.0081L103.532 23.0117L103.544 23.0149C103.939 23.1233 104.311 23.2314 104.66 23.3391L104.679 23.345L104.698 23.3499C105.176 23.471 105.627 23.6848 106.053 24.0033L106.058 24.0068ZM108.112 26.7953L108.112 26.7953H108.045L108.045 26.7953H108.112ZM97.3208 20.505C97.1868 20.436 97.0747 20.3515 96.9846 20.2515C97.0747 20.3515 97.1868 20.436 97.3208 20.505C97.5889 20.6889 97.9018 20.8177 98.2592 20.8912L98.2592 20.8913C97.9311 20.8237 97.6407 20.7097 97.3879 20.5493C97.3652 20.5349 97.3429 20.5201 97.3208 20.505ZM99.3317 21.2223C99.7339 21.2959 100.114 21.4062 100.471 21.5534C100.873 21.6637 101.231 21.7741 101.544 21.8845C101.901 21.9948 102.259 22.0868 102.616 22.1604C103.018 22.2707 103.398 22.3811 103.756 22.4914C104.158 22.6018 104.538 22.7121 104.895 22.8225C105.476 22.9696 106.012 23.2271 106.504 23.595C106.504 23.595 106.504 23.595 106.504 23.595C106.012 23.2271 105.476 22.9696 104.895 22.8225C104.538 22.7121 104.158 22.6018 103.756 22.4914C103.398 22.381 103.018 22.2707 102.616 22.1603C102.259 22.0868 101.901 21.9948 101.544 21.8844C101.231 21.7741 100.873 21.6637 100.471 21.5534C100.114 21.4062 99.7339 21.2959 99.3317 21.2223ZM107.576 24.7537C107.554 24.7215 107.532 24.6898 107.509 24.6587L107.576 24.7537ZM96.7176 19.6222C96.7176 19.6221 96.7176 19.6222 96.7176 19.6221V26.4642V26.7953L96.7176 38.3827V19.6222Z" fill="#213083"/>
<path fill-rule="evenodd" clip-rule="evenodd" d="M82.1732 16.2011L82.1732 45.8869L76.5428 45.8869H82.1732V16.2011ZM76.5428 20.3947L70.5772 20.3946C69.2813 20.3946 68.2759 20.505 67.5609 20.7257C66.8012 21.02 66.2427 21.3327 65.8852 21.6637C65.55 21.9672 65.328 22.2604 65.2191 22.5432C65.328 22.2604 65.55 21.9672 65.8852 21.6638C66.2427 21.3327 66.8012 21.02 67.5609 20.7257C68.2759 20.505 69.2813 20.3947 70.5772 20.3947H76.5428ZM65.1479 22.8225C65.0641 23.0754 65.0065 23.3067 64.9751 23.5165C65.0065 23.3067 65.0641 23.0754 65.1479 22.8225C65.1479 22.8225 65.1479 22.8225 65.1479 22.8225ZM64.9468 23.8709V45.8869H59.2493L59.2493 45.8869H64.9468V23.8709C64.9468 23.8709 64.9468 23.8709 64.9468 23.8709ZM41.9559 45.8869L41.9559 45.8869H47.7204V20.3946H53.2838C54.5797 20.3946 55.6298 20.505 56.4341 20.7257C56.8686 20.8847 57.2379 21.0437 57.542 21.2026C57.2379 21.0437 56.8686 20.8847 56.4341 20.7257C55.6298 20.505 54.5797 20.3947 53.2838 20.3947H47.7204V45.8869H41.9559ZM58.1769 21.6086C58.1322 21.5718 58.084 21.535 58.0324 21.4982L58.1769 21.6086ZM75.8725 46.4387V20.9464H70.5772C69.3308 20.9464 68.4261 21.0527 67.821 21.2348C67.1166 21.5099 66.656 21.7804 66.3862 22.0303L66.3812 22.0349C65.9868 22.392 65.8398 22.6717 65.8148 22.8774L65.8093 22.9232L65.7945 22.9677C65.6701 23.3433 65.6171 23.6415 65.6171 23.8709V46.4387H58.5791V23.7605C58.5791 23.5313 58.5263 23.2163 58.4021 22.8043C58.31 22.5606 58.1041 22.297 57.7285 22.0187L57.7154 22.009L57.7029 21.9987C57.435 21.7782 56.9511 21.5208 56.1921 21.241C55.4849 21.0514 54.5238 20.9464 53.2838 20.9464H48.3907V46.4387H41.2856V15.6494H53.4849C55.7436 15.6494 57.5871 15.8334 58.9815 16.2264C60.126 16.4969 61.1572 16.8729 62.0694 17.3578C62.9569 16.9 64.0085 16.525 65.2138 16.2268C66.6481 15.8346 68.4897 15.6494 70.7113 15.6494H82.8435V46.4387H75.8725Z" fill="#213083"/>
<path fill-rule="evenodd" clip-rule="evenodd" d="M26.8486 15.6494V46.4387H33.8196V15.6494H26.8486ZM33.1493 45.8869H27.5189V45.8869H33.1492V16.2011H33.1493V45.8869Z" fill="#213083"/>
<path fill-rule="evenodd" clip-rule="evenodd" d="M15.6847 10.0764H24.2644V5H0V10.0764H8.64671V46.4387H15.6847V10.0764ZM23.5941 9.52459H15.0144V45.8869H9.31699L15.0144 45.8869V9.52457H23.5941L23.5941 5.55178V9.52459ZM9.31698 9.52459V9.52457H0.670287V9.52459H9.31698Z" fill="#213083"/>
</svg>
